<?xml version="1.0" encoding="utf-8"?>
<!-- Generator: Adobe Illustrator 28.2.0, SVG Export Plug-In . SVG Version: 6.00 Build 0)  -->
<svg version="1.1" id="visual" xmlns="http://www.w3.org/2000/svg" xmlns:xlink="http://www.w3.org/1999/xlink" x="0px" y="0px"
	 viewBox="0 0 900 100" style="enable-background:new 0 0 900 100;" xml:space="preserve">
<style type="text/css">
	.st0{fill:#D2A7FF;}
	.st1{fill:#A384C3;}
	.st2{fill:#76628A;}
	.st3{fill:#4C4255;}
	.st4{fill:#252525;}
</style>
<path class="st0" d="M0,26l12.5,1.2C25,28.3,50,30.7,75,32.5s50,3.2,75,5.7s50,6.1,75,2.8s50-13.7,75-15.2s50,5.9,75,10.5
	c25,4.7,50,6.7,75,4c25-2.6,50-10,75-12s50,1.4,75,0.4s50-6.4,75-7c25-0.7,50,3.3,75,8.5c25,5.1,50,11.5,75,14.8s50,3.7,62.5,3.8
	L900,49v52h-12.5c-12.5,0-37.5,0-62.5,0s-50,0-75,0s-50,0-75,0s-50,0-75,0s-50,0-75,0s-50,0-75,0s-50,0-75,0s-50,0-75,0s-50,0-75,0
	s-50,0-75,0s-50,0-75,0s-50,0-62.5,0H0V26z"/>
<path class="st1" d="M0,54l12.5-1.3c12.5-1.4,37.5-4,62.5-8s50-9.4,75-6.9s50,12.9,75,16.9s50,1.6,75,2.3s50,4.3,75,2.7
	c25-1.7,50-8.7,75-13.5c25-4.9,50-7.5,75-4.2s50,12.7,75,16s50,0.7,75-2.3s50-6.4,75-5.2s50,6.8,75,9s50,0.8,62.5,0.2L900,59v42
	h-12.5c-12.5,0-37.5,0-62.5,0s-50,0-75,0s-50,0-75,0s-50,0-75,0s-50,0-75,0s-50,0-75,0s-50,0-75,0s-50,0-75,0s-50,0-75,0s-50,0-75,0
	s-50,0-75,0s-50,0-62.5,0H0V54z"/>
<path class="st2" d="M0,72l12.5-2.7C25,66.7,50,61.3,75,57s50-7.7,75-5.3C175,54,200,62,225,62s50-8,75-9.7c25-1.6,50,3,75,5.2
	s50,1.8,75,3.8s50,6.4,75,3.4c25-3,50-13.4,75-14.4s50,7.4,75,12.2s50,6.2,75,6.8c25,0.7,50,0.7,75-1c25-1.6,50-5,62.5-6.6L900,60
	v41h-12.5c-12.5,0-37.5,0-62.5,0s-50,0-75,0s-50,0-75,0s-50,0-75,0s-50,0-75,0s-50,0-75,0s-50,0-75,0s-50,0-75,0s-50,0-75,0
	s-50,0-75,0s-50,0-75,0s-50,0-62.5,0H0V72z"/>
<path class="st3" d="M0,72l12.5,1.2C25,74.3,50,76.7,75,75.7s50-5.4,75-8.4s50-4.6,75-5c25-0.3,50,0.7,75,3.5c25,2.9,50,7.5,75,6.9
	c25-0.7,50-6.7,75-8.4c25-1.6,50,1,75,5s50,9.4,75,11c25,1.7,50-0.3,75-1.1c25-0.9,50-0.5,75-0.4c25,0.2,50,0.2,75-0.3
	s50-1.5,62.5-2L900,76v25h-12.5c-12.5,0-37.5,0-62.5,0s-50,0-75,0s-50,0-75,0s-50,0-75,0s-50,0-75,0s-50,0-75,0s-50,0-75,0
	s-50,0-75,0s-50,0-75,0s-50,0-75,0s-50,0-75,0s-50,0-62.5,0H0V72z"/>
<path class="st4" d="M0,78l12.5-0.2C25,77.7,50,77.3,75,77s50-0.7,75,0.8s50,4.9,75,7.2s50,3.7,75,1.5s50-7.8,75-9.7
	c25-1.8,50,0.2,75,3.4c25,3.1,50,7.5,75,7.3s50-4.8,75-6s50,1.2,75,3.3c25,2.2,50,4.2,75,3.2s50-5,75-8.2c25-3.1,50-5.5,62.5-6.6
	L900,72v29h-12.5c-12.5,0-37.5,0-62.5,0s-50,0-75,0s-50,0-75,0s-50,0-75,0s-50,0-75,0s-50,0-75,0s-50,0-75,0s-50,0-75,0s-50,0-75,0
	s-50,0-75,0s-50,0-75,0s-50,0-62.5,0H0V78z"/>
</svg>
