<?xml version="1.0" encoding="utf-8"?>
<!-- Generator: Adobe Illustrator 28.2.0, SVG Export Plug-In . SVG Version: 6.00 Build 0)  -->
<svg version="1.1" id="Warstwa_1" xmlns="http://www.w3.org/2000/svg" xmlns:xlink="http://www.w3.org/1999/xlink" x="0px" y="0px"
	 viewBox="0 0 100 100" style="enable-background:new 0 0 100 100;" xml:space="preserve">
<style type="text/css">
	.st0{display:none;}
	.st1{display:inline;fill:#9D9EA1;}
	.st2{fill:#161E35;}
	.st3{fill:#40B8B2;}
	.st4{fill:#65BEA6;}
	.st5{fill:#DAA66D;}
	.st6{fill:#F8F9FB;}
	.st7{fill:#BD7070;}
	.st8{fill:#C4D057;}
	.st9{fill:#E9DDCF;}
</style>
<g>
	<g id="Background_00000176722080963395786620000008511154893495442309_" class="st0">
		<path class="st1" d="M122.55-14.14c0,64.67,0,64.67,0,129.33c-71.9,0-71.9,0-143.81,0c0-64.67,0-64.67,0-129.33
			C50.65-14.14,50.65-14.14,122.55-14.14z"/>
	</g>
	<g>
		<path class="st2" d="M47.34,1.9c9.25-0.44,19.06,1.15,27.1,5.43c14.85-12.21,33.49,6.79,18.47,18.63
			c5.52,11.92,4.02,30.31-9.83,37.13c8.39,5.48,11.97,18.19,3.79,25.13c1.12,11.21-14.4,16.17-21.56,6.88
			c-4.28,0.82-4.28,0.82-8.57,1.64c-0.61,0.27-1.01,1.49-1.83,1.89c-1.16,0.58-7.54,0.58-8.71,0c-0.83-0.41-1.31-1.73-1.69-1.89
			c-4.35-0.82-4.35-0.82-8.71-1.64c-7.02,9.26-22.58,4.4-21.42-6.88c-8.25-6.58-4.51-19.69,3.65-25.13
			C4.62,55.9,2.66,37.92,8.37,25.96C-6.56,14.2,11.73-4.75,26.98,7.21C33.15,4.1,40.28,2.24,47.34,1.9z"/>
		<g>
			<g>
				<path class="st3" d="M80.56,73.26c-2.24-0.31-4.06,0.74-5.48,2.27c-3.38-2.63-5.64,3.66-4.92,6.88
					c-4.99,1.78-7.44,5.64-5.9,10.36c-3.97,0.85-3.97,0.85-7.93,1.71c-0.46-9.16-0.08-18.31-0.07-27.47
					c7.7-2.53,16.02-3.44,24.23-3.73C81.05,63.51,80.51,72.16,80.56,73.26z"/>
				<path class="st3" d="M26.21,75.41c-1.14-1.22-2.56-1.31-2.46-1.89c-1.58-0.13-1.58-0.13-3.16-0.25
					c0.12-1.16-0.29-9.65,0.21-9.85c8.09,0.08,16.16,1.09,23.87,3.28c0,13.77,0,13.77,0,27.53c-3.83-0.73-3.83-0.73-7.65-1.45
					c1.48-4.43-1.07-8.71-5.9-10.23C31.7,79.04,29.39,73.01,26.21,75.41z"/>
				<path class="st4" d="M49.87,65.18c1.8-0.32,3.29,0.73,3.86,2.21c-0.11,14.68-0.11,14.68-0.21,29.36c-2.88,0-2.88,0-5.76,0
					c-0.18-0.16-0.18-0.16-0.35-0.32c0.26-4.64-0.35-27.42,0-29.05C47.58,66.62,49.05,65.32,49.87,65.18z"/>
				<g>
					<path class="st5" d="M75.08,75.54c1.42-1.54,3.24-2.59,5.48-2.27c0.1,2.44,2.53,1.46,2.67,1.07c0.21-0.58-0.21-6.16,0.07-7.64
						c1.61,1.57,3.52,4.26,4.28,6.25c4.11,10.69-5.12,18.05-11.87,13.32C71.89,83.6,72.17,78.69,75.08,75.54z"/>
					<path class="st5" d="M70.94,84.88c2.87,4.64,7.42,6.31,13.13,4.86c-0.45,5.84-7.21,9.56-13.13,6.63
						C65.81,93.84,64.86,86.97,70.94,84.88z"/>
				</g>
				<g>
					<path class="st5" d="M20.59,73.26c1.58,0.13,1.58,0.13,3.16,0.25c-0.1,0.58,1.32,0.68,2.46,1.89
						c4.66,4.98,1.15,13.08-6.39,12.25c-8.47-0.94-9.53-14.31-1.97-20.84c0.52,1.37-0.75,7.78,0.84,8.08
						C20.26,75.2,20.49,74.23,20.59,73.26z"/>
					<path class="st5" d="M30.21,84.88c4.66,1.56,5.61,6.11,2.6,9.54c-4.94,5.63-15.06,2.77-15.59-4.55
						C22.7,91.02,27.68,89.53,30.21,84.88z"/>
				</g>
				<g>
					<path class="st6" d="M26.42,57.85c7.41,0.02,15.25,1.97,21.7,5.24c-1.3,0.73-1.3,0.73-2.6,1.45
						c-6.55-2.28-13.93-3.19-20.92-3.41c-0.11-0.09-0.11-0.09-0.21-0.19C25.4,59.4,25.4,59.4,26.42,57.85z"/>
					<path class="st6" d="M73.89,57.98c1.66,0.08,2.33,1.96,2.81,3.16c-5.29,0.09-10.58,0.81-15.73,1.89
						c-4.52,0.95-5.3,2.56-7.93,0.06c4.34-2.23,9.17-3.78,14.11-4.48C68.26,58.45,73.11,57.94,73.89,57.98z"/>
				</g>
			</g>
			<g>
				<g>
					<path class="st7" d="M83.02,6.07c10.56-1.14,16.77,10.16,8.85,17.3c-1.02-1.48-1.02-1.48-2.04-2.97
						c5.61-6.47-2.08-14-9.76-9.66c-1.51-1.04-1.51-1.04-3.02-2.08C78.66,7.52,80.96,6.29,83.02,6.07z"/>
					<path class="st8" d="M84.42,12.01c3.44-0.14,5.56,3.49,3.51,5.94c-1.41-2.09-3.39-3.76-5.41-5.37
						C82.57,12.39,84.19,12.02,84.42,12.01z"/>
				</g>
				<g>
					<path class="st7" d="M15.19,6.07c3.21-0.33,6.59,0.56,8.92,2.59c-1.44,0.98-1.44,0.98-2.88,1.96
						c-7.63-4.13-15.59,3.58-9.62,9.54c-1.09,1.61-1.09,1.61-2.18,3.22C2.63,18.02,6.13,7.01,15.19,6.07z"/>
					<path class="st8" d="M15.61,12.13c0.43-0.07,3.06-0.01,3.16,0.32c-2.08,1.64-4.01,3.42-5.55,5.49
						C11.46,16.06,12.94,12.55,15.61,12.13z"/>
				</g>
				<g>
					<path class="st5" d="M47.63,4.43C71.7,3.24,94.18,18.54,93.06,41.37c-0.38,7.74-4.01,16.99-13.27,19.13
						c-1.62-2.53-1.62-2.53-3.23-5.05c-9.21,0.11-18.06,1.51-25.98,5.94c-7.74-4.21-16.84-6.15-25.84-6.19
						c-1.51,1.68-2.23,3.8-3.37,5.68C8.27,56.9,6.51,40.56,9.64,30.26C14.19,15.26,30.83,5.26,47.63,4.43z"/>
					<path class="st2" d="M31.34,36.13c6.31-0.22,8.96,7.43,3.37,10.1c-5.85,2.8-11.92-3.47-7.65-8.15
						C28.01,37.03,29.82,36.18,31.34,36.13z"/>
					<path class="st2" d="M68.41,36.26c8.92-1.09,9.27,10.31,1.69,10.74C61.91,47.45,61.62,37.09,68.41,36.26z"/>
					<g>
						<path class="st2" d="M49.59,37.39c9.32-0.49,18.4,8.93,9.97,14.4c-7.49,4.86-22.74,1.9-21-6.76
							C39.39,40.98,45.27,37.62,49.59,37.39z"/>
						<path class="st9" d="M45.66,41.06c0.34,0.07-0.93,2.98,3.72,4.74c-0.04,2.87-0.04,2.87-0.07,5.75
							C41.06,50.77,38.07,45.64,45.66,41.06z"/>
						<path class="st9" d="M55.49,41.06c7.53,4.54,5.02,9.48-3.37,10.48c-0.11-2.87-0.11-2.87-0.21-5.75
							C52.03,45.5,56.13,44.69,55.49,41.06z"/>
					</g>
				</g>
			</g>
		</g>
	</g>
</g>
</svg>
